<?xml version="1.0" encoding="UTF-8"?>
<svg id="Layer_1" data-name="Layer 1" xmlns="http://www.w3.org/2000/svg" viewBox="0 0 1000 1000">
  <defs>
    <style>
      .cls-1 {
        fill: #1e413c;
      }
    </style>
  </defs>
  <g>
    <path class="cls-1" d="M327.15,581.17h-39.34v-52.56h39.34v9.61h-29.51v12.09h28.46v9.24h-28.46v11.86h29.51v9.76Z"/>
    <path class="cls-1" d="M372.57,528.68v52.48h-8.56l-.6-5.11c-2.85,4.43-7.43,5.93-11.94,5.93-10.89,0-19.07-7.21-19.07-19.37,0-12.76,8.03-19.37,18.85-19.37,3.9,0,9.99,2.1,12.16,5.93v-20.5h9.16ZM341.56,562.62c0,6.46,4.66,10.89,10.51,10.89s10.74-4.2,10.74-10.89-4.96-10.81-10.74-10.81-10.51,4.13-10.51,10.81Z"/>
    <path class="cls-1" d="M389.09,544.15v19.37c0,5.63,3.08,9.91,8.93,9.91s9.46-4.73,9.46-10.36v-18.92h9.08v37.09h-8.18l-.6-5.03c-3.83,3.75-7.36,5.56-12.54,5.56-8.86,0-15.32-6.68-15.32-18.17v-19.45h9.16Z"/>
    <path class="cls-1" d="M471.69,574.56c-5.41,5.33-12.39,7.81-19.97,7.81-19.52,0-27.78-13.44-27.86-27.1-.08-13.74,8.86-27.71,27.86-27.71,7.13,0,13.89,2.7,19.3,8.03l-6.61,6.38c-3.45-3.38-8.11-4.96-12.69-4.96-12.69,0-18.17,9.46-18.1,18.25.08,8.71,5.11,17.79,18.1,17.79,4.58,0,9.76-1.88,13.21-5.33l6.76,6.83Z"/>
    <path class="cls-1" d="M504.35,544.15h8.78v37.02h-8.63l-.45-5.41c-2.1,4.35-7.88,6.46-12.01,6.53-10.96.07-19.07-6.68-19.07-19.67s8.48-19.45,19.3-19.37c4.96,0,9.69,2.33,11.79,6.01l.3-5.11ZM482.12,562.62c0,7.06,4.88,11.26,10.96,11.26,14.42,0,14.42-22.45,0-22.45-6.08,0-10.96,4.13-10.96,11.19Z"/>
    <path class="cls-1" d="M520.86,596.64v-52.48h8.56l.6,5.11c2.85-4.13,7.81-5.93,12.01-5.93,11.41,0,19,8.48,19,19.37s-6.83,19.37-18.7,19.37c-3.9,0-9.69-1.2-12.31-5.26v19.82h-9.16ZM551.87,562.7c0-5.78-3.9-10.51-10.51-10.51s-10.51,4.73-10.51,10.51,4.28,10.51,10.51,10.51,10.51-4.73,10.51-10.51Z"/>
    <path class="cls-1" d="M580.71,533.72v10.51h10.21v7.88h-10.29v15.99c0,3.53,1.95,5.26,4.81,5.26,1.43,0,3.08-.45,4.43-1.13l2.55,7.81c-2.63,1.05-4.81,1.5-7.58,1.58-8.03.3-13.29-4.28-13.29-13.52v-15.99h-6.91v-7.88h6.91v-9.54l9.16-.98Z"/>
    <path class="cls-1" d="M607.14,544.15v19.37c0,5.63,3.08,9.91,8.93,9.91s9.46-4.73,9.46-10.36v-18.92h9.08v37.09h-8.18l-.6-5.03c-3.83,3.75-7.36,5.56-12.54,5.56-8.86,0-15.32-6.68-15.32-18.17v-19.45h9.16Z"/>
    <path class="cls-1" d="M651.21,544.15l.68,4.28c2.85-4.58,6.68-5.26,10.44-5.26s7.51,1.5,9.54,3.53l-4.13,7.96c-1.88-1.58-3.6-2.4-6.61-2.4-4.81,0-9.24,2.55-9.24,9.39v19.52h-9.16v-37.02h8.48Z"/>
    <path class="cls-1" d="M683.12,565.93c.6,4.58,4.58,7.88,11.04,7.88,3.38,0,7.81-1.28,9.91-3.45l5.86,5.78c-3.9,4.05-10.29,6.01-15.92,6.01-12.76,0-20.35-7.88-20.35-19.75s7.66-19.37,19.67-19.37,20.12,7.66,18.7,22.9h-28.91ZM703.24,558.34c-.6-4.81-4.35-7.21-9.61-7.21-4.96,0-9.01,2.4-10.36,7.21h19.97Z"/>
  </g>
  <path class="cls-1" d="M493.11,403.55c6.28-.4,13.06-.16,19.27.78,31.75,4.81,57.02,27.46,77.47,50.59-19.05,21.51-42.41,43.2-71.5,49.26-11.34,2.36-24.21,2.46-35.57.23-29.26-5.72-53.87-27.76-72.64-49.69,21.63-24.02,48.88-49.03,82.97-51.18ZM526.23,460.84c-3.26,14.78-17.79,24.4-32.73,20.85-18.16-4.32-26.16-26.74-15.18-41.86,9.49-13.07,28.66-14.95,40.27-3.45,1.01,1,2.33,3.28,3.14,3.96s3.59-.43,4.64-.81c1.34-.48,7.86-3.58,7.74-5.01-12.23-21.54-42.3-26.04-60.75-9.48-30.6,27.47-5.85,78.49,35.06,70.03,20.14-4.17,33.88-23.98,31.47-44.34h8.47c.74,12.07-2.12,24.39-9.56,34.01l.4.13c13.34-8.22,25.33-18.42,36.22-29.63l.14-.69c-8.54-8.73-17.5-17.12-27.6-24.04-5.64,11.73-17.74,20.02-31.02,19.27-3.9-10.77-16.42-15.57-26.4-9.48-10.38,6.33-11.14,21.3-1.87,29.01,9.79,8.15,24.56,3.36,28.28-8.48h9.29ZM463.12,423.41c-.31-.28-5.96,3.34-6.7,3.82-11.92,7.72-22.76,17.3-32.63,27.46,10.63,11.85,23.24,21.8,36.74,30.18.34.11.55-.07.4-.4-.27-.62-1.87-2.44-2.4-3.33-11.12-18.67-9.01-41.01,4.59-57.72Z"/>
</svg>