<?xml version="1.0" encoding="UTF-8"?>
<svg id="Layer_1" data-name="Layer 1" xmlns="http://www.w3.org/2000/svg" viewBox="0 0 1000 1000">
  <g>
    <path d="M352.49,534.75h-51.06v-68.21h51.06v12.47h-38.3v15.69h36.93v11.99h-36.93v15.4h38.3v12.67Z"/>
    <path d="M411.45,466.64v68.11h-11.11l-.78-6.63c-3.7,5.75-9.65,7.7-15.49,7.7-14.13,0-24.75-9.35-24.75-25.14,0-16.57,10.43-25.14,24.46-25.14,5.07,0,12.96,2.73,15.79,7.7v-26.6h11.89ZM371.2,510.68c0,8.38,6.04,14.13,13.64,14.13s13.93-5.46,13.93-14.13-6.43-14.03-13.93-14.03-13.64,5.36-13.64,14.03Z"/>
    <path d="M432.89,486.71v25.14c0,7.31,4,12.86,11.6,12.86s12.28-6.14,12.28-13.45v-24.56h11.79v48.14h-10.62l-.78-6.53c-4.97,4.87-9.55,7.21-16.27,7.21-11.5,0-19.88-8.67-19.88-23.58v-25.24h11.89Z"/>
    <path d="M540.08,526.18c-7.02,6.92-16.08,10.13-25.92,10.13-25.34,0-36.05-17.44-36.15-35.18-.1-17.83,11.5-35.96,36.15-35.96,9.26,0,18.03,3.51,25.04,10.43l-8.58,8.28c-4.48-4.38-10.52-6.43-16.47-6.43-16.47,0-23.58,12.28-23.48,23.68.1,11.3,6.63,23.09,23.48,23.09,5.94,0,12.67-2.44,17.15-6.92l8.77,8.87Z"/>
    <path d="M582.47,486.71h11.4v48.04h-11.21l-.58-7.02c-2.73,5.65-10.23,8.38-15.59,8.48-14.23.1-24.75-8.67-24.75-25.53s11.01-25.24,25.04-25.14c6.43,0,12.57,3.02,15.3,7.8l.39-6.63ZM553.62,510.68c0,9.16,6.33,14.62,14.23,14.62,18.71,0,18.71-29.14,0-29.14-7.89,0-14.23,5.36-14.23,14.52Z"/>
    <path d="M603.9,554.82v-68.11h11.11l.78,6.63c3.7-5.36,10.13-7.7,15.59-7.7,14.81,0,24.65,11.01,24.65,25.14s-8.87,25.14-24.26,25.14c-5.07,0-12.57-1.56-15.98-6.82v25.73h-11.89ZM644.15,510.78c0-7.5-5.07-13.64-13.64-13.64s-13.64,6.14-13.64,13.64,5.55,13.64,13.64,13.64,13.64-6.14,13.64-13.64Z"/>
    <path d="M681.57,473.17v13.64h13.25v10.23h-13.35v20.76c0,4.58,2.53,6.82,6.24,6.82,1.85,0,4-.58,5.75-1.46l3.31,10.13c-3.41,1.36-6.24,1.95-9.84,2.05-10.43.39-17.25-5.55-17.25-17.54v-20.76h-8.96v-10.23h8.96v-12.38l11.89-1.27Z"/>
    <path d="M715.87,486.71v25.14c0,7.31,4,12.86,11.6,12.86s12.28-6.14,12.28-13.45v-24.56h11.79v48.14h-10.62l-.78-6.53c-4.97,4.87-9.55,7.21-16.27,7.21-11.5,0-19.88-8.67-19.88-23.58v-25.24h11.89Z"/>
    <path d="M773.07,486.71l.88,5.55c3.7-5.94,8.67-6.82,13.55-6.82s9.74,1.95,12.38,4.58l-5.36,10.33c-2.44-2.05-4.68-3.12-8.58-3.12-6.24,0-11.99,3.31-11.99,12.18v25.34h-11.89v-48.04h11.01Z"/>
    <path d="M814.48,514.97c.78,5.94,5.94,10.23,14.32,10.23,4.39,0,10.13-1.66,12.86-4.48l7.6,7.5c-5.07,5.26-13.35,7.8-20.66,7.8-16.57,0-26.41-10.23-26.41-25.63s9.94-25.14,25.53-25.14,26.12,9.94,24.26,29.72h-37.52ZM840.6,505.13c-.78-6.24-5.65-9.35-12.47-9.35-6.43,0-11.69,3.12-13.45,9.35h25.92Z"/>
  </g>
  <path d="M205.49,465.66c4.37-.28,9.08-.11,13.4.55,22.08,3.35,39.66,19.1,53.88,35.19-13.25,14.96-29.49,30.04-49.73,34.26-7.89,1.64-16.84,1.71-24.74.16-20.35-3.98-37.47-19.3-50.52-34.56,15.04-16.71,33.99-34.1,57.71-35.6ZM228.52,505.5c-2.27,10.28-12.38,16.97-22.77,14.5-12.63-3-18.19-18.6-10.56-29.11,6.6-9.09,19.93-10.4,28.01-2.4.7.69,1.62,2.28,2.18,2.76s2.49-.3,3.23-.56c.93-.33,5.47-2.49,5.38-3.48-8.5-14.98-29.42-18.11-42.25-6.6-21.28,19.11-4.07,54.59,24.39,48.71,14.01-2.9,23.57-16.68,21.88-30.84h5.89c.51,8.39-1.48,16.97-6.65,23.66l.28.09c9.28-5.71,17.62-12.81,25.19-20.61l.09-.48c-5.94-6.07-12.17-11.91-19.2-16.72-3.92,8.16-12.34,13.92-21.58,13.4-2.71-7.49-11.42-10.83-18.36-6.59s-7.75,14.81-1.3,20.18c6.81,5.67,17.08,2.34,19.67-5.89h6.46ZM184.63,479.47c-.22-.19-4.15,2.32-4.66,2.65-8.29,5.37-15.83,12.03-22.69,19.1,7.39,8.24,16.16,15.16,25.55,20.99.23.08.38-.05.28-.28-.19-.43-1.3-1.7-1.67-2.32-7.73-12.99-6.27-28.52,3.19-40.15Z"/>
</svg>